<svg width="19" height="22" viewBox="0 0 19 22" fill="none" xmlns="http://www.w3.org/2000/svg">
<path d="M16.15 0H2.85C2.3275 0 1.9 0.4125 1.9 0.916667C1.9 1.42083 2.3275 1.83333 2.85 1.83333H16.15C16.6725 1.83333 17.1 1.42083 17.1 0.916667C17.1 0.4125 16.6725 0 16.15 0ZM2.85 22H16.15C16.6725 22 17.1 21.5875 17.1 21.0833C17.1 20.5792 16.6725 20.1667 16.15 20.1667H2.85C2.3275 20.1667 1.9 20.5792 1.9 21.0833C1.9 21.5875 2.3275 22 2.85 22ZM17.1 3.66667H1.9C0.855 3.66667 0 4.49167 0 5.5V16.5C0 17.5083 0.855 18.3333 1.9 18.3333H17.1C18.145 18.3333 19 17.5083 19 16.5V5.5C19 4.49167 18.145 3.66667 17.1 3.66667ZM9.5 6.1875C10.678 6.1875 11.6375 7.11333 11.6375 8.25C11.6375 9.38667 10.678 10.3125 9.5 10.3125C8.322 10.3125 7.3625 9.38667 7.3625 8.25C7.3625 7.11333 8.322 6.1875 9.5 6.1875ZM14.25 15.5833H4.75V14.2083C4.75 12.6775 7.9135 11.9167 9.5 11.9167C11.0865 11.9167 14.25 12.6775 14.25 14.2083V15.5833Z" fill="white"/>
</svg>
