<svg width="19" height="12" viewBox="0 0 19 12" fill="none" xmlns="http://www.w3.org/2000/svg">
<path fill-rule="evenodd" clip-rule="evenodd" d="M18.3395 11.8222C18.1324 11.9379 17.8985 11.9991 17.6602 11.9999H1.35853C1.1199 12.002 0.885169 11.9406 0.67929 11.8222L6.11319 6.48886L7.44902 7.79997C7.72157 8.05748 8.04503 8.25739 8.39941 8.38734C8.75379 8.5173 9.13156 8.57454 9.50937 8.55552C9.88697 8.57251 10.2642 8.51433 10.6183 8.38448C10.9723 8.25464 11.296 8.05581 11.5697 7.79997L12.9056 6.48886L18.3395 11.8222ZM18.8149 11.3333L13.381 5.99997L18.8149 0.666664C18.9328 0.869866 18.9952 1.0995 18.9961 1.33333V10.6666C19.0172 10.9028 18.9531 11.1388 18.8149 11.3333ZM0.181182 11.3333C0.0633165 11.1301 0.000924878 10.9004 5.23789e-05 10.6666V1.33333C-0.00207306 1.09912 0.060523 0.868732 0.181182 0.666664L5.61508 5.99997L0.181182 11.3333ZM18.3395 0.177777L11.0716 7.31108C10.8647 7.50626 10.6195 7.65812 10.351 7.75745C10.0824 7.85677 9.79608 7.90148 9.50937 7.88885C9.22267 7.90148 8.93635 7.85677 8.66779 7.75745C8.39924 7.65812 8.15405 7.50626 7.94713 7.31108L0.67929 0.177777C0.886325 0.062093 1.12029 0.000856348 1.35853 0H17.6602C17.8985 0.000853131 18.1324 0.06209 18.3395 0.177777Z" fill="white"/>
</svg>
