<svg width="18" height="18" viewBox="0 0 18 18" fill="none" xmlns="http://www.w3.org/2000/svg">
<path fill-rule="evenodd" clip-rule="evenodd" d="M17.6765 15.5949C17.1209 17.2833 14.9441 18.1257 13.3889 17.9853C11.2649 17.7933 8.95364 16.6665 7.19922 15.4257C4.6204 13.6017 2.20478 10.7804 0.797163 7.78642C-0.197646 5.6708 -0.420848 3.06917 1.05877 1.14076C1.60597 0.427949 2.19878 0.0475455 3.08679 0.00314503C4.3204 -0.0568555 4.4932 0.648751 4.9168 1.74796C5.23241 2.56997 5.65361 3.40878 5.88881 4.26079C6.32922 5.8508 4.7896 5.9168 4.5952 7.21641C4.4752 8.03602 5.46761 9.13523 5.91641 9.71964C6.78148 10.8578 7.841 11.8341 9.04604 12.6033C9.73005 13.0341 10.8317 13.8105 11.6141 13.3821C12.8189 12.7221 12.7061 10.6904 14.3897 11.3781C15.2621 11.7333 16.1069 12.2457 16.9397 12.6945C18.2273 13.3869 18.1673 14.1045 17.6765 15.5949C18.0437 14.4813 17.3093 16.7085 17.6765 15.5949Z" fill="white"/>
</svg>
